<?xml version="1.0" encoding="utf-8"?>
<svg xmlns="http://www.w3.org/2000/svg">
  <defs>
    
    <symbol id="arrow" viewBox="0 0 24 24">
      <path d="m11.53 3-.941 12.857L7 15l5.001 6L17 15l-3.587.857L12.471 3h-.941z" fill="currentColor" fill-rule="evenodd" clip-rule="evenodd"/>
      <rect x="0" y="0" width="100%" height="100%" fill="none" />
    </symbol>

    <symbol id="arrow2" viewBox="0 0 8 13">
      <path d="M 0.097 1.941 L 3.5 13 L 6.903 1.941 A 1.5 1.5 180 0 0 5.469 0 h -3.938 a 1.5 1.5 180 0 0 -1.434 1.941 Z" fill="currentColor" />
      <rect x="0" y="0" width="100%" height="100%" fill="none" />
    </symbol>

    <symbol id="avatar" viewBox="0 0 15 15">
      <path fill-rule="evenodd" clip-rule="evenodd" d="M.877 7.5a6.623 6.623 0 1 1 13.246 0 6.623 6.623 0 0 1-13.246 0ZM7.5 1.827a5.673 5.673 0 0 0-4.193 9.494A4.971 4.971 0 0 1 7.5 9.025a4.97 4.97 0 0 1 4.193 2.296A5.673 5.673 0 0 0 7.5 1.827Zm3.482 10.152A4.023 4.023 0 0 0 7.5 9.975a4.023 4.023 0 0 0-3.482 2.004A5.648 5.648 0 0 0 7.5 13.173c1.312 0 2.52-.446 3.482-1.194ZM5.15 6.505a2.35 2.35 0 1 1 4.7 0 2.35 2.35 0 0 1-4.7 0Zm2.35-1.4a1.4 1.4 0 1 0 0 2.8 1.4 1.4 0 0 0 0-2.8Z" fill="currentColor"/>
      <rect x="0" y="0" width="100%" height="100%" fill="none" />
    </symbol>

    <symbol id="lock" viewBox="0 0 32 32">
      <path d="M22 10v3h-1v-3a5 5 0 0 0-10 0v3h-1v-3a6 6 0 0 1 12 0zm3 20H7a2.006 2.006 0 0 1-2-2V16a2.006 2.006 0 0 1 2-2h1v-4a8 8 0 0 1 16 0v4h1a2.006 2.006 0 0 1 2 2v12a2.006 2.006 0 0 1-2 2zM9 14h1v-1h1v1h10v-1h1v1h1v-4a7 7 0 0 0-14 0zM7 29h18a1.001 1.001 0 0 0 1-1V16a1.001 1.001 0 0 0-1-1H7a1.001 1.001 0 0 0-1 1v12a1.001 1.001 0 0 0 1 1zm9-10h1v-1h-1zm-1 7h1v-1h1v-1h-1v-1h1v-1h-1v-1h1v-1h-1v-1h-1z" fill="currentColor"/>
      <path fill="none" d="M0 0h32v32H0z"/>
      <rect x="0" y="0" width="100%" height="100%" fill="none" />
    </symbol>

    <symbol id="unlock" viewBox="0 0 32 32">
      <path d="M24.499 2A6.507 6.507 0 0 0 18 8.5V14h1V8.5a5.5 5.5 0 1 1 10.999 0V10H29V8.5a4.5 4.5 0 0 0-9 0V14H4a2.006 2.006 0 0 0-2 2v12a2.006 2.006 0 0 0 2 2h18a2.006 2.006 0 0 0 2-2V16a2.006 2.006 0 0 0-2-2h-1V8.5a3.5 3.5 0 0 1 7 0V11h3l-.001-2.5a6.508 6.508 0 0 0-6.5-6.5zM22 15a1.001 1.001 0 0 1 1 1v12a1.001 1.001 0 0 1-1 1H4a1.001 1.001 0 0 1-1-1V16a1.001 1.001 0 0 1 1-1zm-10 4h1v1h1v1h-1v1h1v1h-1v1h1v1h-1v1h-1zm1-1h1v1h-1z" fill="currentColor"/>
      <path fill="none" d="M0 0h32v32H0z"/>
      <rect x="0" y="0" width="100%" height="100%" fill="none" />
    </symbol>


  </defs>
</svg>