<?xml version="1.0" encoding="utf-8"?>
<svg xmlns="http://www.w3.org/2000/svg">
  <defs>
    
    <symbol id="arrow" viewBox="0 0 24 24">
      <path d="m11.53 3-.941 12.857L7 15l5.001 6L17 15l-3.587.857L12.471 3h-.941z" fill="currentColor" fill-rule="evenodd" clip-rule="evenodd"/>
      <rect x="0" y="0" width="100%" height="100%" fill="none" />
    </symbol>

    <symbol id="arrow2" viewBox="0 0 8 13">
      <path d="M 0.097 1.941 L 3.5 13 L 6.903 1.941 A 1.5 1.5 180 0 0 5.469 0 h -3.938 a 1.5 1.5 180 0 0 -1.434 1.941 Z" fill="currentColor" />
      <rect x="0" y="0" width="100%" height="100%" fill="none" />
    </symbol>

    <symbol id="avatar" viewBox="0 0 15 15">
      <path fill-rule="evenodd" clip-rule="evenodd" d="M.877 7.5a6.623 6.623 0 1 1 13.246 0 6.623 6.623 0 0 1-13.246 0ZM7.5 1.827a5.673 5.673 0 0 0-4.193 9.494A4.971 4.971 0 0 1 7.5 9.025a4.97 4.97 0 0 1 4.193 2.296A5.673 5.673 0 0 0 7.5 1.827Zm3.482 10.152A4.023 4.023 0 0 0 7.5 9.975a4.023 4.023 0 0 0-3.482 2.004A5.648 5.648 0 0 0 7.5 13.173c1.312 0 2.52-.446 3.482-1.194ZM5.15 6.505a2.35 2.35 0 1 1 4.7 0 2.35 2.35 0 0 1-4.7 0Zm2.35-1.4a1.4 1.4 0 1 0 0 2.8 1.4 1.4 0 0 0 0-2.8Z" fill="currentColor"/>
      <rect x="0" y="0" width="100%" height="100%" fill="none" />
    </svg>


  </defs>
</svg>