<?xml version="1.0" encoding="utf-8"?>
<svg xmlns="http://www.w3.org/2000/svg">
  <defs>
    <symbol id="hoyvann_stigende1" viewBox="0 0 24 32">
      <path d="M3 18c1 0 3-1 3-1s2 1 3 1 3-1 3-1 2 1 3 1 3-1 3-1 2 1 3 1M3 15c1 0 3-1 3-1s2 1 3 1 3-1 3-1 2 1 3 1 3-1 3-1 2 1 3 1M3 21c1 0 3-1 3-1s2 1 3 1 3-1 3-1 2 1 3 1 3-1 3-1 2 1 3 1M3 24c1 0 3-1 3-1s2 1 3 1 3-1 3-1 2 1 3 1 3-1 3-1 2 1 3 1M3 27c1 0 3-1 3-1s2 1 3 1 3-1 3-1 2 1 3 1 3-1 3-1 2 1 3 1M3 30c1 0 3-1 3-1s2 1 3 1 3-1 3-1 2 1 3 1 3-1 3-1 2 1 3 1M8 7l4-3 4 3m-4 4V4" stroke="#006EDB" stroke-width="1.5"/>
      <rect x="0" y="0" width="100%" height="100%" fill="none" />
    </symbol>

    <symbol id="hoyvann_stigende2" viewBox="0 0 24 28">
      <path d="M3 18c1 0 3-1 3-1s2 1 3 1 3-1 3-1 2 1 3 1 3-1 3-1 2 1 3 1M3 15c1 0 3-1 3-1s2 1 3 1 3-1 3-1 2 1 3 1 3-1 3-1 2 1 3 1M3 21c1 0 3-1 3-1s2 1 3 1 3-1 3-1 2 1 3 1 3-1 3-1 2 1 3 1M3 24c1 0 3-1 3-1s2 1 3 1 3-1 3-1 2 1 3 1 3-1 3-1 2 1 3 1M3 27c1 0 3-1 3-1s2 1 3 1 3-1 3-1 2 1 3 1 3-1 3-1 2 1 3 1M8 7l4-3 4 3m-4 4V4" stroke="#006EDB" stroke-width="1.5"/>
      <rect x="0" y="0" width="100%" height="100%" fill="none" />
    </symbol>

    <symbol id="hoyvann_stigende3" viewBox="0 0 24 26">
      <path d="M3 18c1 0 3-1 3-1s2 1 3 1 3-1 3-1 2 1 3 1 3-1 3-1 2 1 3 1M3 15c1 0 3-1 3-1s2 1 3 1 3-1 3-1 2 1 3 1 3-1 3-1 2 1 3 1M3 21c1 0 3-1 3-1s2 1 3 1 3-1 3-1 2 1 3 1 3-1 3-1 2 1 3 1M3 24c1 0 3-1 3-1s2 1 3 1 3-1 3-1 2 1 3 1 3-1 3-1 2 1 3 1M8 7l4-3 4 3m-4 4V4" stroke="#006EDB" stroke-width="1.5"/>
      <rect x="0" y="0" width="100%" height="100%" fill="none" />
    </symbol>

    <symbol id="hoyvann_synkende" viewBox="0 0 24 32">
      <path d="M3 18c1 0 3-1 3-1s2 1 3 1 3-1 3-1 2 1 3 1 3-1 3-1 2 1 3 1M3 15c1 0 3-1 3-1s2 1 3 1 3-1 3-1 2 1 3 1 3-1 3-1 2 1 3 1M3 21c1 0 3-1 3-1s2 1 3 1 3-1 3-1 2 1 3 1 3-1 3-1 2 1 3 1M3 24c1 0 3-1 3-1s2 1 3 1 3-1 3-1 2 1 3 1 3-1 3-1 2 1 3 1M3 27c1 0 3-1 3-1s2 1 3 1 3-1 3-1 2 1 3 1 3-1 3-1 2 1 3 1M3 30c1 0 3-1 3-1s2 1 3 1 3-1 3-1 2 1 3 1 3-1 3-1 2 1 3 1M16 9l-4 3-4-3m4 3V3.5" stroke="#006EDB" stroke-width="1.5"/>
      <rect x="0" y="0" width="100%" height="100%" fill="none" />
    </symbol>

    <symbol id="hoyvann_stigende" viewBox="0 0 24 32">
      <path d="M3 18c1 0 3-1 3-1s2 1 3 1 3-1 3-1 2 1 3 1 3-1 3-1 2 1 3 1M3 15c1 0 3-1 3-1s2 1 3 1 3-1 3-1 2 1 3 1 3-1 3-1 2 1 3 1M3 21c1 0 3-1 3-1s2 1 3 1 3-1 3-1 2 1 3 1 3-1 3-1 2 1 3 1M3 24c1 0 3-1 3-1s2 1 3 1 3-1 3-1 2 1 3 1 3-1 3-1 2 1 3 1M3 27c1 0 3-1 3-1s2 1 3 1 3-1 3-1 2 1 3 1 3-1 3-1 2 1 3 1M3 30c1 0 3-1 3-1s2 1 3 1 3-1 3-1 2 1 3 1 3-1 3-1 2 1 3 1M16 9l-4 3-4-3m4 3V3.5" stroke="#006EDB" stroke-width="1.5"/>
      <rect x="0" y="0" width="100%" height="100%" fill="none" />
    </symbol>

    <symbol id="hoyvann_synkende1" viewBox="0 0 24 28">
      <path d="M3 18c1 0 3-1 3-1s2 1 3 1 3-1 3-1 2 1 3 1 3-1 3-1 2 1 3 1M3 15c1 0 3-1 3-1s2 1 3 1 3-1 3-1 2 1 3 1 3-1 3-1 2 1 3 1M3 21c1 0 3-1 3-1s2 1 3 1 3-1 3-1 2 1 3 1 3-1 3-1 2 1 3 1M3 24c1 0 3-1 3-1s2 1 3 1 3-1 3-1 2 1 3 1 3-1 3-1 2 1 3 1M3 27c1 0 3-1 3-1s2 1 3 1 3-1 3-1 2 1 3 1 3-1 3-1 2 1 3 1M16 9l-4 3-4-3m4 3V3.5" stroke="#006EDB" stroke-width="1.5"/>
      <rect x="0" y="0" width="100%" height="100%" fill="none" />
    </symbol>

    <symbol id="hoyvann_synkende2" viewBox="0 0 24 26">
      <path d="M3 18c1 0 3-1 3-1s2 1 3 1 3-1 3-1 2 1 3 1 3-1 3-1 2 1 3 1M3 15c1 0 3-1 3-1s2 1 3 1 3-1 3-1 2 1 3 1 3-1 3-1 2 1 3 1M3 21c1 0 3-1 3-1s2 1 3 1 3-1 3-1 2 1 3 1 3-1 3-1 2 1 3 1M3 24c1 0 3-1 3-1s2 1 3 1 3-1 3-1 2 1 3 1 3-1 3-1 2 1 3 1M16 8l-4 3-4-3m4 3V3.5" stroke="#006EDB" stroke-width="1.5"/>
      <rect x="0" y="0" width="100%" height="100%" fill="none" />
    </symbol>

    <symbol id="hoyvann_synkende3" viewBox="0 0 24 20">
      <path d="M3 18c1 0 3-1 3-1s2 1 3 1 3-1 3-1 2 1 3 1 3-1 3-1 2 1 3 1M3 15c1 0 3-1 3-1s2 1 3 1 3-1 3-1 2 1 3 1 3-1 3-1 2 1 3 1M3 21c1 0 3-1 3-1s2 1 3 1 3-1 3-1 2 1 3 1 3-1 3-1 2 1 3 1M3 24c1 0 3-1 3-1s2 1 3 1 3-1 3-1 2 1 3 1 3-1 3-1 2 1 3 1m-5-17l-4 3-4-3m4 3V3.5" stroke="#006EDB" stroke-width="1.5"/>
      <rect x="0" y="0" width="100%" height="100%" fill="none" />
    </symbol>

    <symbol id="lavvann_stigende" viewBox="0 0 24 16">
      <path d="m8 7 4-3 4 3m-4 4V4" stroke="#006EDB" stroke-width="1.5"/>
      <rect x="0" y="0" width="100%" height="100%" fill="none" />
    </symbol>

    <symbol id="lavvann_stigende1" viewBox="0 0 24 18">
      <path d="M3 18c1 0 3-1 3-1s2 1 3 1 3-1 3-1 2 1 3 1 3-1 3-1 2 1 3 1M8 7l4-3 4 3m-4 4V4" stroke="#006EDB" stroke-width="1.5"/>
      <rect x="0" y="0" width="100%" height="100%" fill="none" />
    </symbol>

    <symbol id="lavvann_stigende2" viewBox="0 0 24 20">
      <path d="M3 18c1 0 3-1 3-1s2 1 3 1 3-1 3-1 2 1 3 1 3-1 3-1 2 1 3 1M3 21c1 0 3-1 3-1s2 1 3 1 3-1 3-1 2 1 3 1 3-1 3-1 2 1 3 1M8 7l4-3 4 3m-4 4V4" stroke="#006EDB" stroke-width="1.5"/>
      <rect x="0" y="0" width="100%" height="100%" fill="none" />
    </symbol>

    <symbol id="lavvann_stigende3" viewBox="0 0 24 20">
      <path d="M3 18c1 0 3-1 3-1s2 1 3 1 3-1 3-1 2 1 3 1 3-1 3-1 2 1 3 1M3 15c1 0 3-1 3-1s2 1 3 1 3-1 3-1 2 1 3 1 3-1 3-1 2 1 3 1M3 21c1 0 3-1 3-1s2 1 3 1 3-1 3-1 2 1 3 1 3-1 3-1 2 1 3 1M8 7l4-3 4 3m-4 4V4" stroke="#006EDB" stroke-width="1.5"/>
      <rect x="0" y="0" width="100%" height="100%" fill="none" />
    </symbol>

    <symbol id="lavvann_synkende1" viewBox="0 0 24 18">
      <path d="M3 18c1 0 3-1 3-1s2 1 3 1 3-1 3-1 2 1 3 1 3-1 3-1 2 1 3 1M16 8l-4 3-4-3m4 3V3.5" stroke="#006EDB" stroke-width="1.5"/>
      <rect x="0" y="0" width="100%" height="100%" fill="none" />
    </symbol>

    <symbol id="lavvann_synkende2" viewBox="0 0 24 20">
      <path d="M3 18c1 0 3-1 3-1s2 1 3 1 3-1 3-1 2 1 3 1 3-1 3-1 2 1 3 1M3 21c1 0 3-1 3-1s2 1 3 1 3-1 3-1 2 1 3 1 3-1 3-1 2 1 3 1M16 8l-4 3-4-3m4 3V3.5" stroke="#006EDB" stroke-width="1.5"/>
      <rect x="0" y="0" width="100%" height="100%" fill="none" />
    </symbol>

    <symbol id="lavvann_synkende3" viewBox="0 0 24 20">
      <path d="M3 18c1 0 3-1 3-1s2 1 3 1 3-1 3-1 2 1 3 1 3-1 3-1 2 1 3 1M3 15c1 0 3-1 3-1s2 1 3 1 3-1 3-1 2 1 3 1 3-1 3-1 2 1 3 1M3 21c1 0 3-1 3-1s2 1 3 1 3-1 3-1 2 1 3 1 3-1 3-1 2 1 3 1M16 6l-4 3-4-3m4 3V3.5" stroke="#006EDB" stroke-width="1.5"/>
      <rect x="0" y="0" width="100%" height="100%" fill="none" />
    </symbol>

  </defs>
</svg>