<svg xmlns="http://www.w3.org/2000/svg" width="18" height="18" viewBox="0 0 27 27">
  <defs>
    <style>.dmiLogo{fill:#fff;stroke:#fff;stroke-width:0.2px;}</style>
  </defs>
  <g transform="translate(-32.899 -7.898)">
    <path class="dmiLogo" d="M23.154,9.812C22.815,7.462,20.9,6.444,18.5,6.444a7.114,7.114,0,0,0-3.158.766A2.057,2.057,0,0,0,13.708,4.9V3.545a.415.415,0,1,0-.829,0V4.9a2.057,2.057,0,0,0-1.634,2.307,7.108,7.108,0,0,0-3.157-.766c-2.406,0-4.32,1.018-4.659,3.368A3.416,3.416,0,0,0,.008,13.8c.092,1.8,2.361,4.711,3.775,6.355h1.1c-1.728-1.929-3.966-4.9-4.042-6.4a3.023,3.023,0,0,1,.654-2.315,3,3,0,0,1,1.863-.792,6.559,6.559,0,0,0,.008.7,10.2,10.2,0,0,0,1.321,3.574,39.969,39.969,0,0,0,3.5,5.228H9.23S4.494,14.325,4.192,11.3c0-.005-.722-4.025,3.9-4.025a6.906,6.906,0,0,1,4.79,2.148V20.155h.829V9.422A6.9,6.9,0,0,1,18.5,7.274c4.617,0,3.9,4.019,3.9,4.025-.3,3.026-5.039,8.856-5.039,8.856H18.4a39.969,39.969,0,0,0,3.5-5.228,10.221,10.221,0,0,0,1.321-3.574,6.926,6.926,0,0,0,.008-.7,3.008,3.008,0,0,1,1.863.792,3.028,3.028,0,0,1,.654,2.315c-.076,1.5-2.314,4.467-4.043,6.4h1.1c1.413-1.644,3.683-4.551,3.773-6.355a3.416,3.416,0,0,0-3.421-3.989m-9.86-1.559a1.315,1.315,0,1,1,1.313-1.315,1.313,1.313,0,0,1-1.313,1.315" transform="translate(33 9.03)"/>
    <path class="dmiLogo" d="M10.1,2.491a.415.415,0,0,0,.415-.415V.415a.415.415,0,1,0-.831,0V2.076a.416.416,0,0,0,.416.415" transform="translate(36.189 7.999)"/>
    <path class="dmiLogo" d="M7.915,3.021H9.577a.415.415,0,0,0,0-.831H7.915a.415.415,0,0,0,0,.831" transform="translate(35.469 8.72)"/>
    <path class="dmiLogo" d="M11.04,3.021H12.7a.415.415,0,0,0,0-.831H11.04a.415.415,0,0,0,0,.831" transform="translate(36.497 8.72)"/>
    <rect class="dmiLogo" width="19.107" height="0.831" transform="translate(36.739 32.09)"/>
    <rect class="dmiLogo" width="19.107" height="0.831" transform="translate(36.739 33.752)"/>
    <path class="dmiLogo" d="M2.813,16.876v.831H21.919v-.831Z" transform="translate(33.926 13.554)"/>
  </g>
</svg>