<?xml version="1.0" encoding="utf-8"?>
<svg xmlns="http://www.w3.org/2000/svg">
  <defs>
    <symbol id="surfline" viewBox="0 0 14 18" width="14px" height="18px" preserveAspectRatio="none">
      <title>Surfline Logo</title>
      <g id="Navigation" transform="translate(-121.000000, -357.000000)" fill="currentColor">
        <g id="surfline-header-desktop" transform="translate(51.000000, 336.000000)">
          <g id="surfline-logo" transform="translate(70.000000, 21.000000)">
            <path d="M6.71291516,15.6154353 C6.34045631,15.6102457 5.98021758,15.5580901 5.63754526,15.4636392 C7.50314911,15.0002069 8.89853321,13.2982738 8.92551929,11.2538264 C8.93290228,10.6466418 9.42170678,10.1611537 10.0176918,10.169976 C10.6121494,10.1782794 11.08797,10.6762226 11.0800779,11.2818503 C11.0474909,13.7087721 9.09278208,15.6476109 6.71291516,15.6154353 L6.71291516,15.6154353 Z M3.52473871,12.2777367 C2.92900823,12.2686549 2.45293301,11.7720091 2.46107975,11.1653435 C2.49315755,8.73868116 4.44786638,6.79906387 6.82824247,6.83201791 C7.19993756,6.8361696 7.56068547,6.88988207 7.90412155,6.98459248 C6.03775394,7.44672739 4.64287901,9.14710358 4.61563835,11.1941458 C4.60800077,11.8008114 4.11919627,12.2860401 3.52473871,12.2777367 L3.52473871,12.2777367 Z M12.7914028,8.36035849 C12.0462305,6.4139947 6.76994235,0.058018055 6.76994235,0.058018055 C6.76994235,0.058018055 1.49289042,6.4139947 0.748481894,8.36035849 C0.349036965,9.23013737 0.125256154,10.2003352 0.125256154,11.2226887 C0.125256154,14.9636201 3.1000898,17.9946127 6.76994235,17.9946127 C10.4395403,17.9946127 13.4141194,14.9636201 13.4141194,11.2226887 C13.4141194,10.2003352 13.1903386,9.23013737 12.7914028,8.36035849 L12.7914028,8.36035849 Z" />
          </g>
        </g>
      </g>
    </symbol>

    <symbol id="dmi" viewBox="0 0 27 27" width="18" height="18"  preserveAspectRatio="none">
      <g transform="translate(-32.899 -7.898)" fill="currentColor">
        <path d="M23.154,9.812C22.815,7.462,20.9,6.444,18.5,6.444a7.114,7.114,0,0,0-3.158.766A2.057,2.057,0,0,0,13.708,4.9V3.545a.415.415,0,1,0-.829,0V4.9a2.057,2.057,0,0,0-1.634,2.307,7.108,7.108,0,0,0-3.157-.766c-2.406,0-4.32,1.018-4.659,3.368A3.416,3.416,0,0,0,.008,13.8c.092,1.8,2.361,4.711,3.775,6.355h1.1c-1.728-1.929-3.966-4.9-4.042-6.4a3.023,3.023,0,0,1,.654-2.315,3,3,0,0,1,1.863-.792,6.559,6.559,0,0,0,.008.7,10.2,10.2,0,0,0,1.321,3.574,39.969,39.969,0,0,0,3.5,5.228H9.23S4.494,14.325,4.192,11.3c0-.005-.722-4.025,3.9-4.025a6.906,6.906,0,0,1,4.79,2.148V20.155h.829V9.422A6.9,6.9,0,0,1,18.5,7.274c4.617,0,3.9,4.019,3.9,4.025-.3,3.026-5.039,8.856-5.039,8.856H18.4a39.969,39.969,0,0,0,3.5-5.228,10.221,10.221,0,0,0,1.321-3.574,6.926,6.926,0,0,0,.008-.7,3.008,3.008,0,0,1,1.863.792,3.028,3.028,0,0,1,.654,2.315c-.076,1.5-2.314,4.467-4.043,6.4h1.1c1.413-1.644,3.683-4.551,3.773-6.355a3.416,3.416,0,0,0-3.421-3.989m-9.86-1.559a1.315,1.315,0,1,1,1.313-1.315,1.313,1.313,0,0,1-1.313,1.315" transform="translate(33 9.03)"/>
        <path d="M10.1,2.491a.415.415,0,0,0,.415-.415V.415a.415.415,0,1,0-.831,0V2.076a.416.416,0,0,0,.416.415" transform="translate(36.189 7.999)"/>
        <path d="M7.915,3.021H9.577a.415.415,0,0,0,0-.831H7.915a.415.415,0,0,0,0,.831" transform="translate(35.469 8.72)"/>
        <path  d="M11.04,3.021H12.7a.415.415,0,0,0,0-.831H11.04a.415.415,0,0,0,0,.831" transform="translate(36.497 8.72)"/>
        <rect  width="19.107" height="0.831" transform="translate(36.739 32.09)"/>
        <rect width="19.107" height="0.831" transform="translate(36.739 33.752)"/>
        <path d="M2.813,16.876v.831H21.919v-.831Z" transform="translate(33.926 13.554)"/>
      </g>
    </symbol>

    <symbol id="yr" viewBox="0 0 24 24" width="18" height="18"  preserveAspectRatio="none">
      <path fill="#fff" fill-rule="evenodd" d="M12 0C5.373 0 0 5.372 0 12c0 6.627 5.373 12 12 12 6.628 0 12-5.373 12-12 0-6.628-5.372-12-12-12z" clip-rule="evenodd"/>
      <path fill="currentColor" fill-rule="evenodd" d="M20.185 15.914s-.473.132-.826-.246c-.415-.444-1.071-1.338-1.071-1.338a3.427 3.427 0 0 0 1.514-.876c.664-.661 1.026-1.597 1.022-2.604.01-1.047-.45-1.988-1.176-2.578-.723-.597-1.655-.874-2.625-.875h-1.709a2.914 2.914 0 0 0-2.908 2.908v7.176h1.938v-2.036a.982.982 0 0 1 .97-.969h.772l2.085 2.554.146.18c.158.151.365.25.596.27v.001h.042a.282.282 0 0 0 .08 0h1.147l.003-1.567zM8.759 17.781c.797-.445 2.38-1.33 2.389-3.717V7.709H9.231l-.002 3.133c-.036 1.168-1.13 1.546-2.001 1.558-.995-.014-2.044-.566-2.044-2.083V7.709H3.293v2.608c0 1.184.409 2.195 1.184 2.925.701.66 1.662 1.031 2.712 1.049h.078c.705-.013 1.741-.473 1.942-.879v.863c0 1.144-1.455 1.89-1.847 2.086l.028.034a.477.477 0 0 0-.01.005l-.018.009 1.218 1.473.18-.101zm8.263-8.445c.605 0 1.09.177 1.39.428.295.257.464.558.474 1.085-.003.567-.184.96-.454 1.234-.275.271-.667.452-1.234.454h-1.885c-.292.001-.573.103-.839.2l-.13.047v-2.479a.982.982 0 0 1 .97-.969h1.708zM12 0C5.373 0 0 5.372 0 12c0 6.627 5.373 12 12 12 6.628 0 12-5.373 12-12 0-6.628-5.372-12-12-12z" clip-rule="evenodd"/>
    </symbol>

    <symbol id="smhi" viewBox="0 0 38 15.265" width="143.622" height="57.696"  preserveAspectRatio="none">
      <path fill="currentColor" d="M7.125.576c.086.043.194.093.266.165v4.397c-.094-.08-.13-.122-.165-.151-.66-.768-1.564-1.578-2.67-1.205-.28.122-.516.402-.516.703-.05.401.273.738.581.982.76.589 1.607 1.12 2.232 1.858.365.394.617.896.832 1.384.043.079.093.23.093.23L8.833.232h4.987l1.19 6.748L16.374.23h4.937l1.55 14.739H18.62l-.538-8.004-1.6 8.004h-3.035L11.94 7.332l-.552 7.638H7.104s.122-1.148.265-2.316l-.2.423c-1.07 1.649-2.942 2.395-4.916 2.137-.717-.13-1.435-.251-2.073-.567a.204.204 0 0 1-.043-.043v-4.446l.028.029c.194.171.323.35.502.487.704.667 1.694 1.233 2.684.774a.964.964 0 0 0 .467-.774c.014-.753-.79-1.212-1.299-1.65C1.005 8-.143 6.365.015 4.586.094 2.857 1.135.87 2.985.246 4.3-.22 5.927.016 7.125.576M27.157 5.39h1.952V.233h3.982l.007 14.746-4.083-.007-.014-5.946h-1.837l-.007 5.946-4.183-.008V.241h4.176ZM33.91.234H38v14.737h-4.09z"/>
    </symbol>
  </defs>
</svg>