<?xml version="1.0" encoding="utf-8"?>
<svg xmlns="http://www.w3.org/2000/svg">
  <defs>
    <symbol id="session" viewBox="0 0 512 512" height="20px" width="20px">
      <g transform="translate(0 512) scale(0.1 -0.1)" fill="currentColor" stroke="currentColor">
        <path d="M3525 5111 c-292 -71 -572 -655 -726 -1518 l-33 -182 -131 -131 -132 -132 -17 126 c-18 134 -33 186 -70 251 -36 61 -118 132 -194 168 l-67 32 -595 0 -595 0 -75 -36 c-85 -41 -159 -110 -195 -179 -53 -105 -53 -103 -61 -865 -6 -650 -5 -713 10 -750 22 -52 52 -83 101 -106 51 -23 89 -23 140 0 50 22 91 69 105 119 6 24 10 279 10 712 0 595 2 678 16 698 18 26 27 27 48 6 14 -13 16 -63 16 -395 l0 -379 483 2 482 3 5 385 5 385 22 3 c16 2 26 -3 32 -20 5 -13 24 -138 41 -278 38 -315 44 -346 77 -388 30 -39 93 -71 141 -72 60 0 105 29 221 143 l113 112 -6 -80 c-28 -392 -10 -931 45 -1297 138 -931 502 -1510 907 -1440 394 67 708 709 807 1653 111 1048 -74 2366 -426 3049 -156 303 -332 442 -504 401z" />
        <path d="M1427 4586 c-157 -66 -243 -200 -236 -369 3 -69 10 -94 36 -148 138 -280 538 -280 676 0 30 61 32 73 32 166 0 88 -3 107 -27 157 -34 74 -112 152 -186 186 -83 39 -213 43 -295 8z" />
        <path d="M1076 2359 c-3 -17 -6 -53 -6 -80 l0 -49 496 0 497 0 -7 31 c-3 17 -6 53 -6 80 l0 49 -484 0 -483 0 -7 -31z" />
        <path d="M1060 2088 c0 -7 -7 -112 -15 -233 -20 -303 -20 -330 5 -355 19 -19 33 -20 223 -20 245 0 239 -3 263 108 23 107 30 115 38 46 11 -89 25 -133 46 -144 12 -7 99 -9 231 -8 l212 3 18 25 c18 24 18 34 2 308 l-17 282 -503 0 c-396 0 -503 -3 -503 -12z" />
        <path d="M1082 728 l3 -583 27 -42 c15 -23 48 -54 73 -69 114 -66 245 -28 308 90 22 41 22 46 25 614 l3 572 -221 0 -221 0 3 -582z" />
        <path d="M1610 759 c0 -385 3 -564 12 -596 16 -63 87 -137 148 -153 102 -27 204 16 252 109 l28 53 0 569 0 569 -220 0 -220 0 0 -551z" />
      </g>
    </symbol>

    <symbol id="webkamera" viewBox="0 0 512 512" height="20px" width="20px">
      <g transform="translate(0 512) scale(0.1 -0.1)" fill="currentColor" stroke="currentColor">
        <path d="M2558 4808 c-190 -17 -354 -100 -490 -247 -78 -85 -123 -159 -160 -262 -75 -214 -55 -444 58 -648 48 -86 187 -225 279 -279 427 -250 974 -41 1132 433 25 73 27 93 27 235 0 143 -2 161 -28 235 -122 357 -445 567 -818 533z" />
        <path d="M765 4482 c-174 -53 -314 -170 -391 -329 -164 -338 11 -744 370 -859 116 -37 258 -37 373 0 99 32 213 106 278 179 57 64 130 212 144 291 55 308 -117 605 -409 707 -90 31 -278 37 -365 11z" />
        <path d="M4895 3386 c-173 -82 -686 -540 -932 -831 -90 -107 -83 -50 -83 -703 l0 -579 28 -41 c132 -198 758 -774 974 -897 85 -49 171 -23 216 65 l22 44 0 1418 c0 1528 2 1456 -51 1505 -21 18 -85 43 -114 43 -5 0 -32 -11 -60 -24z" />
        <path d="M203 3170 c-103 -15 -186 -75 -198 -143 -3 -18 -4 -556 -3 -1197 l3 -1165 22 -31 c12 -16 45 -43 75 -60 l53 -29 1675 -3 c1202 -2 1690 0 1727 8 28 6 70 24 92 40 77 56 72 -49 69 1279 l-3 1190 -30 31 c-42 45 -93 68 -172 80 -81 11 -3230 12 -3310 0z" />
      </g>
    </symbol>

    <symbol id="observasjon" viewBox="0 0 512 512" height="20px" width="20px">
      <g transform="translate(0 512) scale(0.1 -0.1)" fill="currentColor" stroke="currentColor">
        <path d="M1993 5102 c-64 -23 -110 -58 -147 -111 -48 -69 -56 -122 -56 -369 l0 -224 33 5 c17 3 85 11 150 18 112 12 211 7 380 -18 l39 -5 -4 243 c-3 239 -4 245 -29 300 -67 142 -225 212 -366 161z" />
        <path d="M767 4596 c-124 -46 -200 -156 -199 -288 0 -112 26 -153 213 -343 89 -91 165 -165 168 -165 3 0 26 30 51 67 58 86 205 235 298 302 39 29 72 56 72 60 0 18 -329 331 -370 351 -57 29 -176 37 -233 16z" />
        <path d="M3215 4597 c-65 -26 -96 -51 -253 -209 l-163 -164 74 -51 c95 -66 234 -205 300 -300 l51 -74 163 163 c191 190 223 240 223 343 0 92 -24 151 -89 216 -38 38 -72 61 -105 72 -56 19 -157 21 -201 4z" />
        <path d="M1912 4156 c-457 -87 -791 -412 -882 -855 -31 -152 -23 -396 17 -498 8 -22 9 -21 78 23 348 226 793 299 1210 199 55 -13 125 -32 155 -43 l54 -19 61 52 c33 28 81 65 107 83 104 72 281 144 388 158 38 5 50 11 50 23 0 44 -46 186 -89 276 -139 289 -395 500 -708 581 -122 32 -328 41 -441 20z" />
        <path d="M240 3364 c-110 -51 -170 -139 -178 -259 -8 -129 58 -238 177 -294 55 -25 61 -26 299 -29 133 -2 242 0 242 5 0 4 -7 49 -15 98 -19 115 -19 285 0 400 8 50 15 93 15 98 0 4 -109 7 -242 7 -239 0 -244 -1 -298 -26z" />
        <path d="M3404 3343 c10 -71 16 -83 35 -83 39 0 181 -44 259 -80 116 -54 205 -116 289 -200 l72 -72 20 34 c72 118 36 298 -76 384 -76 58 -111 64 -369 64 l-236 0 6 -47z" />
        <path d="M3113 2921 c-188 -51 -350 -178 -432 -339 -12 -23 -23 -42 -24 -42 -2 0 -50 24 -108 54 -480 248 -1042 173 -1430 -192 -222 -208 -354 -480 -377 -774 l-7 -91 -61 -13 c-151 -31 -267 -97 -399 -229 -90 -89 -106 -112 -152 -205 -81 -163 -101 -304 -67 -468 50 -245 203 -437 435 -546 246 -116 528 -95 757 58 82 54 190 167 229 237 14 27 30 49 34 49 5 0 41 -11 81 -24 348 -116 721 -71 1034 125 47 30 130 96 184 147 l99 93 22 -43 c48 -95 147 -217 229 -282 305 -241 714 -261 1031 -50 221 147 368 392 386 646 5 69 10 91 22 95 184 64 332 194 410 358 53 111 66 171 66 305 -1 93 -5 129 -24 185 -62 189 -184 335 -346 414 -108 53 -153 64 -281 69 -101 4 -132 1 -198 -17 -82 -23 -169 -63 -225 -105 -19 -14 -36 -24 -38 -23 -1 2 -9 39 -18 83 -23 122 -89 247 -178 337 -136 138 -274 198 -467 204 -91 2 -130 -1 -187 -16z" />
      </g>
    </symbol>
   
   <symbol id="bomtur" viewBox="0 0 512 512" height="20px" width="20px">
       <g transform="translate(0 512) scale(0.1 -0.1)" stroke="currentColor" fill="currentColor">
        <path d="M2442 4949 c-111 -43 -46 70 -1279 -2229 -623 -1163 -1141 -2139 -1149 -2169 -43 -144 26 -297 168 -373 l43 -23 2335 0 2335 0 43 23 c142 76 211 229 168 373 -8 30 -524 1006 -1144 2169 -1232 2308 -1163 2186 -1277 2229 -73 27 -171 27 -243 0z m235 -1290 c42 -16 73 -37 114 -78 98 -100 93 -55 97 -829 2 -431 -1 -693 -7 -729 -21 -111 -90 -201 -189 -246 -66 -30 -188 -30 -254 0 -69 31 -131 94 -164 166 l-29 62 -3 673 c-2 433 1 692 7 728 38 206 237 323 428 253z m27 -2259 c26 -14 66 -43 88 -64 157 -158 106 -425 -100 -519 -66 -30 -188 -30 -254 0 -235 108 -259 429 -42 565 63 40 94 48 179 45 62 -2 91 -8 129 -27z" />
      </g>
    </symbol>

    <symbol id="oyenvitne" viewBox="0 0 512 512" height="20px" width="20px">
       <g transform="translate(0 512) scale(0.1 -0.1)" stroke="currentColor" fill="currentColor">
        <path d="M2404 4080 c-846 -49 -1644 -502 -2280 -1294 -166 -207 -166 -244 1 -453 635 -793 1436 -1245 2286 -1292 961 -52 1870 402 2585 1293 166 207 166 244 -1 453 -464 579 -1016 977 -1626 1172 -190 61 -419 105 -599 116 -196 11 -238 12 -366 5z m368 -466 c287 -54 563 -250 713 -505 180 -308 199 -680 51 -995 -58 -123 -114 -203 -209 -301 -535 -551 -1446 -383 -1756 324 -112 255 -114 567 -5 833 105 259 334 485 595 588 198 78 396 96 611 56z" />
        <path d="M2455 3130 c-163 -35 -307 -136 -389 -274 -61 -101 -81 -176 -80 -296 0 -116 11 -163 57 -260 43 -89 167 -213 258 -257 321 -155 694 3 810 342 33 97 34 249 2 350 -73 231 -285 392 -528 401 -49 2 -108 -1 -130 -6z" />
      </g>
    </symbol>
  </defs>
</svg>